<?xml version="1.0" encoding="UTF-8"?>
<svg width="20px" height="20px" viewBox="0 0 20 20" version="1.1" xmlns="http://www.w3.org/2000/svg" xmlns:xlink="http://www.w3.org/1999/xlink">
    <!-- Generator: Sketch 47.1 (45422) - http://www.bohemiancoding.com/sketch -->
    <title>Group 19</title>
    <desc>Created with Sketch.</desc>
    <defs></defs>
    <g id="Page-1" stroke="none" stroke-width="1" fill="none" fill-rule="evenodd">
        <g id="Group-19" fill="#4095FF">
            <path d="M19.1083962,1.99839683 L0.891603847,1.99839683 C0.400311931,1.99839683 0,1.54977713 0,0.999198414 C0,0.448619696 0.400311931,0 0.891603847,0 L19.1083962,0 C19.5996881,0 20,0.448619696 20,0.999198414 C20,1.54977713 19.5996881,1.99839683 19.1083962,1.99839683 L19.1083962,1.99839683 Z M2.20468961,2.13392647 C2.34243852,2.13392647 2.4861765,2.16384787 2.62991448,2.22069855 L2.63889811,2.22069855 L8.48424276,4.96449179 L8.54413359,4.9944132 L18.4860108,14.9343054 C18.8273885,15.2724173 19.01305,15.7242306 19.01305,16.2029732 C19.01305,16.6817157 18.8243939,17.133529 18.4860108,17.4716409 L16.4796681,19.4763753 C16.1382904,19.8144873 15.6861146,20 15.206988,20 C14.7278614,20 14.2756857,19.8114951 13.9373025,19.4733832 L4.03435436,9.5843574 L3.98943624,9.53947528 L3.96248537,9.48262461 L1.22846914,3.67487905 C1.06676391,3.33078284 1.09072024,2.95377308 1.29434905,2.633614 C1.49498332,2.32542349 1.84235012,2.13392647 2.20468961,2.13392647 L2.20468961,2.13392647 Z M14.012166,16.6517943 L15.2039935,17.8426664 L16.8479967,16.199981 L15.6561692,15.0091089 L14.012166,16.6517943 L14.012166,16.6517943 Z M4.23498863,5.2427609 L5.69333025,8.34261891 L12.5598135,15.2006059 L14.2038167,13.5579206 L7.33733344,6.69993354 L4.23498863,5.2427609 L4.23498863,5.2427609 Z" id="Shape-Copy-3" transform="translate(10.000000, 10.000000) scale(1, -1) translate(-10.000000, -10.000000) "></path>
        </g>
    </g>
</svg>