<?xml version="1.0" encoding="UTF-8"?>
<svg width="17px" height="20px" viewBox="0 0 17 20" version="1.1" xmlns="http://www.w3.org/2000/svg" xmlns:xlink="http://www.w3.org/1999/xlink">
    <!-- Generator: Sketch 47.1 (45422) - http://www.bohemiancoding.com/sketch -->
    <title>Group 23 Copy 2</title>
    <desc>Created with Sketch.</desc>
    <defs></defs>
    <g id="Page-1" stroke="none" stroke-width="1" fill="none" fill-rule="evenodd">
        <g id="Group-23-Copy-2" transform="translate(-2.000000, 0.000000)">
            <rect id="Rectangle-8" x="0" y="0" width="20" height="20"></rect>
            <path d="M13.9086845,20 L3.82918263,20 C2.81960409,20 2,19.3046198 2,18.4480269 L2,1.55197305 C2,0.695380173 2.81960409,0 3.82918263,0 L17.1708174,1.02580761e-15 C18.1803959,1.02580761e-15 19,0.695380173 19,1.55197305 L19,14.9566891 L13.9086845,20 Z M13.1624,13.4791027 L17,13.4791027 L17,2.03673313 C16.9896,2.02525403 16.9506,2 16.8908,2 L4.1092,2 C4.0494,2 4.0104,2.02295821 4,2.03673313 L4,2.03673313 L4,18.1419143 C4.0104,18.1556892 4.052,18.1809432 4.1092,18.1809432 L11.6752,18.1809432 L11.6752,14.7923121 C11.6752,14.0691286 12.3434,13.4791027 13.1624,13.4791027 Z M13.4418902,15.0721848 L13.4418902,18.1809432 L16.5791826,15.0721848 L13.4418902,15.0721848 Z M5.78484848,12 C5.35265152,12 5,11.5506757 5,11 C5,10.4493243 5.35265152,10 5.78484848,10 L11.2151515,10 C11.6473485,10 12,10.4493243 12,11 C12,11.5506757 11.6473485,12 11.2151515,12 L5.78484848,12 Z M5,7 C5,6.44932432 5.315,6 5.70105263,6 L13.2989474,6 C13.685,6 14,6.44932432 14,7 C14,7.55067568 13.685,8 13.2989474,8 L5.70105263,8 C5.315,8 5,7.55067568 5,7 Z" id="Shape" fill="#cccccc" transform="translate(10.500000, 10.000000) scale(1, -1) translate(-10.500000, -10.000000) "></path>
        </g>
    </g>
</svg>