<?xml version="1.0" encoding="UTF-8"?>
<svg width="20px" height="20px" viewBox="0 0 20 20" version="1.1" xmlns="http://www.w3.org/2000/svg" xmlns:xlink="http://www.w3.org/1999/xlink">
    <!-- Generator: Sketch 47.1 (45422) - http://www.bohemiancoding.com/sketch -->
    <title>Shape Copy 3</title>
    <desc>Created with Sketch.</desc>
    <defs></defs>
    <g id="Page-1" stroke="none" stroke-width="1" fill="none" fill-rule="evenodd">
        <path d="M19.8655747,11.5873712 L19.7822349,12.1135716 L18.1746541,12.6507345 C18.0342924,13.0848498 17.8588402,13.5101951 17.6504907,13.9158079 L18.4093215,15.4308266 L18.0978938,15.8649419 C17.4662659,16.726595 16.7118215,17.4808156 15.8542989,18.1034861 L15.4222479,18.4148213 L13.9067795,17.6562157 C13.4988532,17.8645034 13.0755748,18.0399035 12.6413306,18.1802236 L12.1062014,19.7829423 L11.5842311,19.8640649 C11.0030457,19.95615 10.5008138,20 10.0007751,20 C9.51389522,20 9.00947016,19.95615 8.41512586,19.8618724 L7.88876927,19.7785573 L7.35364008,18.1692611 C6.91062329,18.024556 6.48515172,17.8491559 6.08819113,17.6474457 L4.57491596,18.4082438 L4.14286493,18.0969086 C3.28314918,17.4742381 2.52870475,16.72221 1.90146315,15.8583644 L1.59003551,15.4242491 L2.34886625,13.9092304 C2.14270992,13.5036176 1.96725773,13.0804648 1.82689597,12.6463495 L0.219315243,12.1135716 L0.13597545,11.5873712 C0.0438630485,11.0063583 0,10.4889279 0,10 C0,9.50887963 0.0438630485,8.99144924 0.13597545,8.41482131 L0.219315243,7.88862092 L1.82689597,7.35145801 C1.96725773,6.91734269 2.14270992,6.49199737 2.3510594,6.08638456 L1.59661497,4.57575093 L1.90804261,4.14602061 C2.23262917,3.69436527 2.56818149,3.29752247 2.93224479,2.9313747 C3.27218342,2.58934444 3.66914401,2.25389169 4.14505808,1.90528393 L4.57710911,1.5939487 L6.09038428,2.35255426 C6.49831064,2.14426661 6.92158905,1.96667398 7.35583323,1.82854637 L7.89096243,0.219250164 L8.41731901,0.135935102 C8.9941181,0.0438500329 9.51170207,0 10.0007751,0 C10.489848,0 11.007432,0.0438500329 11.5864243,0.135935102 L12.1127808,0.219250164 L12.64791,1.82854637 C13.0777679,1.96886648 13.5010463,2.14426661 13.9111658,2.35036176 L15.4266342,1.59175619 L15.8586852,1.90309143 C16.330213,2.24292918 16.7271735,2.57838193 17.0714985,2.9291822 C17.4289823,3.28655996 17.7623415,3.68559526 18.0957007,4.14382811 L18.4071283,4.57794343 L17.6482976,6.09296207 C17.856647,6.49857487 18.0320992,6.92172769 18.172461,7.35803552 L19.7800417,7.89519842 L19.8633815,8.42139882 C19.9554939,8.99802675 19.999357,9.51545714 19.999357,10.004385 C20.0059364,10.4889279 19.9620734,11.0085508 19.8655747,11.5873712 L19.8655747,11.5873712 Z M18.2142188,10.0171765 L18.2142188,10.0064936 C18.2142188,9.718055 18.1949838,9.4253432 18.1586511,9.11126559 L17.4020764,8.85914886 L16.7331276,8.63267112 L16.5258176,7.95964765 C16.4082707,7.57078965 16.2522539,7.19261456 16.0620416,6.83366871 L15.7329103,6.21192322 L16.4039963,4.87228603 C16.2073724,4.62444247 16.0128856,4.40437448 15.8098501,4.20139915 L15.8055756,4.19712599 C15.6068145,3.99628724 15.3866812,3.80185823 15.138764,3.60742923 L13.8030037,4.27617954 L13.1832108,3.95355559 C12.8177468,3.76339975 12.4330478,3.60529265 12.0419372,3.48137087 L11.3729884,3.27198579 L11.1549923,2.60964524 L10.9028007,1.85329505 C10.5907671,1.81483657 10.2958312,1.79774391 10.0073069,1.79774391 C9.72091992,1.79774391 9.42598402,1.81697315 9.11181318,1.85329505 L8.85962162,2.60964524 L8.63948831,3.27839554 L7.96626507,3.48564403 C7.56874278,3.60742923 7.19045544,3.76339975 6.83995191,3.94928242 L6.21588466,4.27404295 L5.58540576,3.95996533 L4.87371263,3.60529265 C4.6257955,3.80185823 4.40566219,3.99628724 4.20262661,4.19926257 C3.9953166,4.40651106 3.80082988,4.62657905 3.60848039,4.87014945 L4.27529197,6.20551347 L3.95043505,6.82512238 C3.75594834,7.19688772 3.59779431,7.5771994 3.48238461,7.95751107 L3.2750746,8.63053454 L1.85168833,9.10271926 C1.81321843,9.41466029 1.7961207,9.70950867 1.7961207,9.9979473 C1.7961207,10.2863859 1.81535565,10.5790977 1.85168833,10.8931753 L3.27080016,11.3653601 L3.47811018,12.0362469 C3.59779431,12.4229684 3.75594834,12.8054166 3.94616061,13.1729088 L4.27101754,13.7925177 L3.95898391,14.4185364 L3.60420596,15.1300183 C3.97821886,15.5957933 4.40352497,16.0209732 4.86943819,16.3948751 L6.2073358,15.7261248 L6.82926583,16.0530219 C7.18831822,16.2410412 7.57088,16.3991483 7.96626507,16.5230701 L8.63521387,16.7324551 L8.8574844,17.3969323 L9.10967596,18.1532825 C9.43239567,18.1896044 9.72519435,18.2088336 10.0030325,18.2088336 C10.2894195,18.2088336 10.5843554,18.1896044 10.8963891,18.1532825 L11.3708511,16.7367283 L12.0397999,16.5294798 C12.4287734,16.4076946 12.8113351,16.2495875 13.1767992,16.0615682 L13.796592,15.7368077 L15.1323524,16.405558 C15.5982656,16.0316561 16.0257089,15.6064762 16.4039963,15.1385646 L15.7371847,13.8032006 L16.0577672,13.1857283 C16.2479795,12.8182361 16.4082707,12.4336513 16.5300921,12.0426567 L16.7395393,11.3739064 L17.4042137,11.1517018 L18.1607883,10.8995851 C18.2013955,10.5790977 18.2184932,10.2906591 18.2142188,10.0171765 L18.2142188,10.0171765 Z M10.0051614,13.9075918 C7.85007798,13.9075918 6.09640971,12.1544439 6.09640971,10 C6.09640971,7.8455561 7.85007798,6.0924082 10.0051614,6.0924082 C12.1602447,6.0924082 13.913913,7.8455561 13.913913,10 C13.913913,12.1544439 12.1602447,13.9075918 10.0051614,13.9075918 L10.0051614,13.9075918 Z M11.5908106,8.41482131 C11.1675321,7.99166849 10.603892,7.75707082 10.0051614,7.75707082 C9.40643075,7.75707082 8.84279058,7.98947599 8.41951216,8.41482131 C7.99623374,8.83797413 7.76156643,9.40144705 7.76156643,10 C7.76156643,10.5985529 7.99404059,11.1620259 8.41951216,11.5851787 C8.84279058,12.0083315 9.40643075,12.2429292 10.0051614,12.2429292 C10.603892,12.2429292 11.1675321,12.010524 11.5908106,11.5851787 C12.014089,11.1598334 12.2487563,10.5985529 12.2487563,10 C12.2487563,9.40144705 12.014089,8.83797413 11.5908106,8.41482131 L11.5908106,8.41482131 Z" id="Shape-Copy-3" fill="#4095FF" transform="translate(10.000000, 10.000000) scale(1, -1) translate(-10.000000, -10.000000) "></path>
    </g>
</svg>